# xmcd
#
# Track frame offsets: 
#        150
#        22087
#        40687
#        61349
#        80061
#        98661
#        117598
#        130160
#        150014
#        169926
#        189013
#        208475
#        224900
#        242450
#
# Disc length: 3460 seconds
#
# Revision: 0
# Processed by: cddbd v1.5.2PL0 Copyright (c) Steve Scherf et al.
# Submitted via: ExactAudioCopy v0.99pb4
#
DISCID=c00d820e
DTITLE=ดาวทองเสียงอิสาน - ดาวทองลองร็อค
DYEAR=2008
DGENRE=Country
TTITLE0=ดาวทองลองร็อค
TTITLE1=คนกรุงเทพฯ
TTITLE2=แมงเม่ากับความรัก
TTITLE3=เจ้าชู้ก็รัก
TTITLE4=รับสายแน่เด้อ
TTITLE5=ผ้าป่าคนช้ำ
TTITLE6=แม่หม้ายหัวใจสะออน
TTITLE7=ดาวทอง 2009
TTITLE8=ขอโทษฉันไม่รู้
TTITLE9=อย่าโยนความผิด
TTITLE10=นกน้อยในกรงใจ
TTITLE11=ห่างกันย้านเป็นอื่น
TTITLE12=สาวนายังคอย
TTITLE13=สาวเฒ่ารำพัน
EXTD=
EXTT0=
EXTT1=
EXTT2=
EXTT3=
EXTT4=
EXTT5=
EXTT6=
EXTT7=
EXTT8=
EXTT9=
EXTT10=
EXTT11=
EXTT12=
EXTT13=
PLAYORDER=
